<svg width="174" height="80" viewBox="0 0 174 80" fill="none" xmlns="http://www.w3.org/2000/svg">
<g clip-path="url(#clip0)">
<path d="M75.6736 0.0168398C80.3726 -0.0878034 85.1133 1.27332 88.9786 3.96046C93.1109 6.77762 96.2511 11.018 97.7279 15.7946C99.2288 20.5813 99.0723 25.8713 97.274 30.5549C95.2758 35.8389 91.1971 40.303 86.1078 42.7562C81.7883 44.8973 76.7658 45.5533 72.0358 44.6517C66.8572 43.697 62.0626 40.8291 58.7588 36.7368C55.501 32.7654 53.6546 27.6401 53.7206 22.5C53.6721 17.8415 55.1881 13.1978 57.9017 9.41895C61.9223 3.72934 68.7043 0.137893 75.6736 0.0168398ZM69.8713 5.5166C66.2236 6.87545 63.0277 9.43195 60.9294 12.7112C58.5391 16.3544 57.5977 20.8686 58.1749 25.1768C59.8113 21.6211 61.8782 18.2054 64.7026 15.4623C67.3163 12.7544 70.5793 10.7552 74.0191 9.27265C73.3573 8.70866 72.6982 8.14455 72.0516 7.56769C75.745 6.89893 79.6521 7.19582 83.143 8.61122C80.8655 11.0291 78.5258 13.421 76.6789 16.1954C76.4199 15.0051 76.1813 13.8078 75.9197 12.6185C73.0803 14.5263 71.0689 17.4775 69.9174 20.6665C68.3143 25.1376 68.03 30.0507 68.9402 34.7036C70.6331 34.4423 72.3158 34.0372 73.8936 33.3605C77.6051 31.8298 80.5351 28.8353 82.4712 25.3689C81.2195 25.4026 79.9702 25.5201 78.7184 25.5741C81.1909 22.9052 83.4173 19.98 85.0877 16.7391C87.0059 19.8592 88.5633 23.1846 89.9125 26.5871C88.9071 26.2765 87.8987 25.9718 86.8829 25.6968C87.0112 29.9101 86.6596 34.1526 85.5 38.2192C90.2097 35.473 93.5215 30.4993 94.2627 25.1029C94.8065 21.3235 94.1036 17.3749 92.2903 14.0166C90.0561 9.76822 86.0543 6.50674 81.4557 5.14032C77.6872 3.99884 73.555 4.13731 69.8713 5.5166ZM42.8043 57.6785C43.6121 56.245 45.2339 55.4145 46.8499 55.3529C48.6919 55.2659 50.536 55.3374 52.3805 55.3148C52.3805 56.361 52.3805 57.4069 52.3778 58.4556C50.7949 58.4582 49.2098 58.45 47.6246 58.4529C46.9015 58.445 46.1033 58.6346 45.6571 59.2522C45.1702 59.8831 45.2671 60.7264 45.2568 61.4748C45.2876 62.6627 45.2157 63.8496 45.2852 65.0368C45.3361 65.8336 45.8342 66.6546 46.6597 66.8365C47.5938 67.0081 48.5527 66.9062 49.4972 66.8645C49.4942 65.9648 49.4942 65.0643 49.4972 64.165C48.8966 64.1601 48.2963 64.1578 47.6959 64.1551C47.6986 63.2402 47.6986 62.3221 47.6986 61.4064C49.3454 61.4039 50.9898 61.4039 52.6341 61.4039C52.6209 63.9701 52.6723 66.5366 52.6082 69.1005C50.9305 70.3258 48.7882 69.9363 46.8522 69.9955C45.0538 70.0341 43.3121 68.929 42.5714 67.2902C41.8527 65.7985 42.0942 64.1061 42.0554 62.5061C42.0501 60.8803 41.9503 59.1344 42.8043 57.6785ZM101.456 57.3679C102.302 56.0961 103.821 55.4172 105.321 55.3506C107.165 55.2659 109.014 55.3375 110.864 55.3145C110.864 56.3607 110.864 57.4066 110.861 58.4553C109.192 58.4653 107.521 58.4348 105.852 58.4625C105.044 58.4705 104.138 58.8576 103.88 59.6856C103.513 60.927 103.749 62.2394 103.677 63.516C103.664 64.6212 103.6 66.0668 104.724 66.6872C105.747 67.1127 106.904 66.885 107.984 66.852C107.976 65.9548 107.978 65.06 107.981 64.165C107.381 64.1601 106.78 64.1574 106.18 64.1551C106.183 63.2402 106.183 62.3221 106.183 61.4064C107.829 61.4039 109.474 61.4039 111.118 61.4064C111.128 63.9422 111.108 66.4775 111.131 69.0158C109.489 70.3443 107.306 69.9363 105.362 69.9979C103.551 70.0519 101.778 68.9541 101.037 67.3032C100.288 65.8083 100.604 64.1009 100.54 62.4986C100.52 60.7627 100.393 58.8576 101.456 57.3679ZM0 55.5041C1.18764 55.5093 2.37541 55.5068 3.56508 55.5068C4.29656 58.5397 4.96274 61.5883 5.71961 64.6153C6.15051 61.5727 6.69925 58.5469 7.16868 55.5085C8.51545 55.503 9.85957 55.5059 11.2062 55.5085C11.696 58.5416 12.1913 61.5772 12.6837 64.6101C13.3865 61.5746 14.1 58.5389 14.8128 55.5059C16.0007 55.5059 17.1909 55.5085 18.3782 55.503C17.0596 60.3103 15.7181 65.1125 14.4125 69.9247C13.1942 69.9276 11.9782 69.9302 10.7596 69.922C10.2441 66.9096 9.68251 63.9025 9.19477 60.8843C8.67912 63.9025 8.14541 66.9148 7.60956 69.9276H3.96694C2.6602 65.116 1.31848 60.314 0 55.5041ZM17.2015 69.9285C18.5177 65.1183 19.8514 60.3141 21.172 55.5068H24.8351C26.1509 60.3166 27.4873 65.1183 28.8006 69.9254C27.6929 69.9285 26.5841 69.9254 25.4733 69.931C25.2528 68.9464 25.045 67.962 24.8142 66.98C23.622 66.977 22.4287 66.98 21.2334 66.977C21.0179 67.9591 20.7945 68.9386 20.5817 69.9204C19.4564 69.9334 18.3278 69.9285 17.2015 69.9285ZM21.8754 64.4162C22.6577 64.4132 23.4406 64.4162 24.2224 64.4232C23.8404 62.6875 23.437 60.9596 23.0503 59.2291C22.6577 60.9576 22.2629 62.6854 21.8754 64.4162ZM30.4481 55.4426C32.7597 55.4497 35.0683 55.4245 37.3795 55.4525C38.7492 55.4265 40.175 56.4193 40.255 57.8578C40.268 59.1447 40.268 60.4318 40.2525 61.7191C40.2216 62.7394 39.4158 63.5194 38.5363 63.9108C39.3778 65.8955 40.2242 67.8779 41.0681 69.8647H37.395C36.7382 68.0699 36.1179 66.2624 35.4453 64.4752C34.804 64.4781 34.1655 64.4807 33.5268 64.4807C33.5242 66.2754 33.5322 68.0725 33.5215 69.8674C32.498 69.8623 31.4746 69.8623 30.451 69.8674C30.4428 65.057 30.4481 60.2498 30.4481 55.4426ZM33.5263 58.3271C33.5263 59.4395 33.5237 60.5497 33.5291 61.6625C34.4573 61.6396 35.3858 61.7036 36.3122 61.6372C36.9023 61.5905 37.2462 60.993 37.1819 60.4422C37.1614 59.7647 37.3922 58.7347 36.5997 58.4143C35.5912 58.2166 34.5499 58.3754 33.5263 58.3271ZM57.4666 55.5093C58.6851 55.5036 59.9035 55.5119 61.1245 55.5016C62.4585 60.3062 63.7875 65.1134 65.0951 69.9289H61.7682C61.5497 68.9414 61.3424 67.9541 61.1037 66.9727C59.9156 66.9855 58.7255 66.9804 57.5356 66.9784C57.325 67.9629 57.0939 68.9419 56.8865 69.9292H53.5057C54.8116 65.1182 56.161 60.3191 57.4666 55.5093ZM58.1747 64.4186C58.9568 64.4162 59.7416 64.4162 60.5239 64.4162C60.1392 62.6826 59.7339 60.9548 59.3542 59.2219C58.9517 60.952 58.567 62.6854 58.1747 64.4186ZM66.4906 55.5068C67.8036 55.5094 69.1169 55.4989 70.4303 55.5167C71.3355 59.0244 72.2822 62.5205 73.2006 66.0255C74.1863 62.5288 75.0884 59.0115 76.0502 55.5088C77.3508 55.5061 78.6515 55.5061 79.9545 55.5061V69.9278H77.0046C77.0279 67.1872 76.9537 64.4487 76.9025 61.7099C76.1457 64.4329 75.4886 67.1867 74.7935 69.9278C73.7294 69.9249 72.6645 69.9405 71.6029 69.9097C70.9257 67.1 70.2075 64.3 69.507 61.4976C69.4942 64.3078 69.5044 67.1145 69.5015 69.9276H66.4876C66.4881 65.1212 66.4853 60.3141 66.4906 55.5068ZM82.4584 55.5093C83.5018 55.5066 84.5483 55.5066 85.5976 55.5066V69.9284H82.4554C82.4561 65.1212 82.4561 60.314 82.4584 55.5093ZM88.1012 55.5093C89.1247 55.5066 90.148 55.5036 91.172 55.5093C92.693 58.3039 94.2035 61.1012 95.7378 63.8877C95.72 61.0935 95.7324 58.3015 95.7324 55.5093C96.7353 55.5066 97.7381 55.5066 98.741 55.5093C98.7437 60.3139 98.7437 65.1211 98.7437 69.9258C97.7177 69.9285 96.6941 69.9285 95.6731 69.9258C94.1412 67.0921 92.6358 64.2469 91.1022 61.4162C91.1225 64.2543 91.1077 67.09 91.1125 69.9286H88.0984C88.0992 65.1212 88.0992 60.314 88.1012 55.5093ZM118.688 55.5068C119.709 55.5068 120.733 55.5094 121.753 55.5041C123.313 58.3164 124.819 61.1571 126.378 63.9697C126.391 61.1472 126.378 58.327 126.384 55.5066C127.366 55.5066 128.348 55.5066 129.331 55.5093C129.334 60.3139 129.334 65.1211 129.334 69.9284C128.302 69.9253 127.271 69.9383 126.242 69.9123C124.755 67.0538 123.195 64.2338 121.694 61.3824C121.712 64.2283 121.694 67.0764 121.705 69.9248C120.699 69.9304 119.694 69.9277 118.688 69.9277C118.688 65.1212 118.686 60.3141 118.688 55.5068ZM131.644 55.5093C134.72 55.5066 137.798 55.5066 140.876 55.5066C140.874 56.4452 140.874 57.3828 140.879 58.3214C138.847 58.3339 136.816 58.3214 134.784 58.327C134.781 59.2242 134.781 60.1217 134.784 61.0189H140.296C140.299 61.9574 140.299 62.8983 140.296 63.8359C138.46 63.839 136.623 63.839 134.787 63.839C134.781 64.9055 134.781 65.9746 134.787 67.0438H140.873C140.876 68.0053 140.876 68.9665 140.873 69.9284H131.642C131.642 65.1212 131.639 60.314 131.644 55.5093ZM142.352 55.5093C145.666 55.5036 148.977 55.5093 152.291 55.5066V58.327H148.959C148.954 62.1728 148.959 66.0184 148.954 69.8641H145.817C145.814 66.0208 145.812 62.1774 145.817 58.3337C144.663 58.3237 143.506 58.3237 142.352 58.3267V55.5093ZM113.302 66.98C114.304 66.98 115.307 66.98 116.31 66.977C116.315 67.9591 116.315 68.9411 116.318 69.923C115.312 69.9307 114.307 69.9287 113.301 69.9287C113.302 68.9439 113.299 67.962 113.302 66.98Z" fill="#BDBDBD"/>
</g>
<defs>
<clipPath id="clip0">
<rect width="174" height="80" fill="white"/>
</clipPath>
</defs>
</svg>
