<svg width="176" height="51" viewBox="0 0 176 51" fill="none" xmlns="http://www.w3.org/2000/svg">
<path d="M80.14 30.074H71.3576H71.3567C66.5137 30.074 62.5728 26.1425 62.5728 21.3076C62.5728 16.4746 66.5137 12.5417 71.3567 12.5417C76.2001 12.5417 80.14 16.4746 80.14 21.3076V30.074ZM71.3567 7.86621C63.9177 7.86621 57.8867 13.8848 57.8867 21.3076C57.8867 28.7316 63.9177 34.75 71.3567 34.75H71.3576H84.8251V21.3076C84.8251 13.8848 78.7954 7.86621 71.3567 7.86621Z" fill="#BDBDBD"/>
<path d="M150.527 30.074H141.743C136.899 30.074 132.959 26.1425 132.959 21.3076C132.959 16.4746 136.899 12.5417 141.743 12.5417C146.586 12.5417 150.527 16.4746 150.527 21.3076V30.074ZM141.743 7.86621C134.304 7.86621 128.273 13.8848 128.273 21.3076C128.273 28.7316 134.304 34.75 141.743 34.75H155.212V21.3076C155.212 13.8848 149.181 7.86621 141.743 7.86621Z" fill="#BDBDBD"/>
<path d="M100.928 7.86799C93.5176 7.89918 87.5195 13.9042 87.5195 21.3076V34.75C90.1074 34.75 92.2044 32.6564 92.2044 30.074H92.2153L92.2101 21.3076H92.2044C92.2044 16.4941 96.1134 12.5755 100.928 12.5434V12.5417H104.003C106.591 12.5417 108.689 10.4482 108.689 7.86621H100.928V7.86799Z" fill="#BDBDBD"/>
<path d="M126.818 30.074H123.744V30.0721C118.928 30.0396 115.02 26.1213 115.02 21.3077H115.025L115.029 12.5419H119.691C122.279 12.5419 124.377 10.4484 124.377 7.86644H119.691H115.031L115.031 5.15194H115.02C115.02 2.56836 112.923 0.476562 110.334 0.476562V21.3077C110.334 28.7113 116.333 34.7164 123.744 34.7483V34.75H131.503C131.503 32.1672 129.406 30.074 126.818 30.074Z" fill="#BDBDBD"/>
<path d="M6.44664 43.7608C4.19281 41.1764 3.36552 37.0191 6.44308 34.1557C7.97038 32.7342 10.1136 32.123 12.1713 32.5222C13.5359 32.7877 14.7969 33.4282 15.7085 34.4804C18.7666 38.0064 15.7779 42.6471 18.2271 47.5909C18.7263 48.5963 19.3142 49.5436 20.0371 50.375C15.7007 49.2402 9.10865 46.8142 6.44664 43.7608Z" fill="#BDBDBD"/>
<path d="M2.18373 17.8547C3.95036 14.9199 7.65664 12.8494 11.3364 14.8842C13.1632 15.8964 14.4092 17.7418 14.6644 19.8186C14.8336 21.1934 14.6116 22.5881 13.8898 23.7773C11.4746 27.7695 6.13017 26.3698 2.17589 30.2207C1.36856 31.0048 0.649289 31.8569 0.0808103 32.8008C-0.17693 28.3316 0.09507 21.326 2.18373 17.8547Z" fill="#BDBDBD"/>
<path d="M25.5666 5.75389C28.9111 6.52319 32.0268 9.40136 31.2257 13.52C30.8263 15.5692 29.4512 17.3215 27.5521 18.2055C26.2928 18.7908 24.8972 19.0123 23.5391 18.6947C18.9878 17.6347 18.6731 12.1308 13.7805 9.56763C12.7833 9.0456 11.7486 8.62508 10.6738 8.37568C14.8534 6.74934 21.614 4.84514 25.5666 5.75389Z" fill="#BDBDBD"/>
<path d="M44.3861 24.216C44.6862 27.6257 42.9078 31.4748 38.7342 31.9875C36.6568 32.24 34.5642 31.4793 33.1357 29.9479C32.1875 28.9342 31.545 27.6757 31.4281 26.29C31.0306 21.644 36.1794 19.6428 37.1112 14.2076C37.3003 13.1005 37.3805 11.9885 37.2859 10.8901C40.1263 14.3545 44.0312 20.1834 44.3861 24.216Z" fill="#BDBDBD"/>
<path d="M32.3962 47.7582C29.2371 49.0984 25.0178 48.5985 23.2444 44.796C22.3606 42.9048 22.4372 40.6806 23.4577 38.8521C24.1314 37.637 25.1323 36.6398 26.4155 36.1012C30.7181 34.2886 34.2188 38.5573 39.6861 37.7604C40.8009 37.5969 41.883 37.3331 42.9006 36.9033C40.4793 40.6691 36.1294 46.1768 32.3962 47.7582Z" fill="#BDBDBD"/>
<path d="M60.0823 41.2687H58.6699V40.7603H62.108V41.2687H60.6884V45.3945H60.0823V41.2687Z" fill="#BDBDBD"/>
<path d="M66.0725 43.2207H64.2739V44.8933H66.2865V45.3945H63.668V40.7603H66.1823V41.2616H64.2739V42.7262H66.0725V43.2207Z" fill="#BDBDBD"/>
<path d="M70.6616 45.3965L70.0614 44.3722C69.82 43.9808 69.6754 43.7258 69.5309 43.4575H69.5169C69.3861 43.7258 69.2477 43.9738 69.0142 44.3793L68.4564 45.3965H67.7676L69.1852 43.0521L67.8216 40.7622H68.5178L69.1313 41.8478C69.3029 42.1503 69.4339 42.3851 69.5587 42.6324H69.5794C69.7093 42.3569 69.827 42.1442 69.9999 41.8478L70.6264 40.7622H71.3225L69.91 43.0177L71.3565 45.3965H70.6616Z" fill="#BDBDBD"/>
<path d="M73.4789 40.7603V42.6992H75.7247V40.7603H76.3307V45.3945H75.7247V43.2207H73.4789V45.3945H72.873V40.7603H73.4789Z" fill="#BDBDBD"/>
<path d="M78.3815 43.0991C78.3815 44.0951 78.9189 44.9826 79.87 44.9826C80.8208 44.9826 81.3581 44.1093 81.3581 43.0571C81.3581 42.1298 80.8759 41.1669 79.8781 41.1669C78.878 41.1669 78.3815 42.0879 78.3815 43.0991ZM81.9928 43.0298C81.9928 44.6181 81.0204 45.4707 79.835 45.4707C78.6027 45.4707 77.748 44.5146 77.748 43.1125C77.748 41.641 78.6577 40.6787 79.8976 40.6787C81.1727 40.6787 81.9928 41.6481 81.9928 43.0298Z" fill="#BDBDBD"/>
<path d="M86.4929 40.7617V45.3958H85.886V41.2631H84.3576V42.6657C84.3576 43.6706 84.3085 44.7913 83.6608 45.2306C83.488 45.341 83.2123 45.4512 82.9445 45.4512L82.8691 44.9692C83.0548 44.9425 83.2473 44.8321 83.3575 44.7221C83.7302 44.3645 83.7643 43.4571 83.7643 42.7136V40.7617H86.4929Z" fill="#BDBDBD"/>
<path d="M88.4622 43.0991C88.4622 44.0951 88.9994 44.9826 89.9503 44.9826C90.901 44.9826 91.4384 44.1093 91.4384 43.0571C91.4384 42.1298 90.9564 41.1669 89.9563 41.1669C88.9584 41.1669 88.4622 42.0879 88.4622 43.0991ZM92.0722 43.0298C92.0722 44.6181 91.1017 45.4707 89.9162 45.4707C88.6823 45.4707 87.8281 44.5146 87.8281 43.1125C87.8281 41.641 88.7373 40.6787 89.9779 40.6787C91.2523 40.6787 92.0722 41.6481 92.0722 43.0298Z" fill="#BDBDBD"/>
<path d="M95.7715 40.7603V41.2617H93.9046V45.3945H93.2988V40.7603H95.7715Z" fill="#BDBDBD"/>
<path d="M97.7174 40.7603V42.7122C97.7174 43.4415 97.7034 44.0538 97.6624 44.6724L97.682 44.68C97.91 44.1977 98.1997 43.696 98.5365 43.1463L100.04 40.7603H100.639V45.3945H100.074V43.4213C100.074 42.6714 100.08 42.1217 100.129 41.5362L100.108 41.5292C99.8804 42.0391 99.5642 42.5751 99.2468 43.0843L97.7925 45.3945H97.1523V40.7603H97.7174Z" fill="#BDBDBD"/>
<path d="M104.669 41.2506C104.565 41.2229 104.373 41.1954 104.097 41.1954C103.511 41.1954 103.008 41.416 103.008 42.0546C103.008 42.6113 103.497 42.935 104.159 42.935C104.358 42.935 104.551 42.935 104.669 42.9209V41.2506ZM102.146 45.3965C102.222 45.2735 102.284 45.1279 102.339 44.977C102.539 44.448 102.656 43.8015 103.035 43.4233C103.146 43.3141 103.283 43.23 103.428 43.1823V43.1693C102.849 43.0721 102.402 42.6592 102.402 42.0281C102.402 41.6223 102.567 41.2984 102.829 41.0851C103.118 40.8523 103.573 40.7275 104.159 40.7275C104.551 40.7275 104.965 40.7626 105.268 40.8239V45.3965H104.669V43.3884H104.22C103.938 43.3884 103.724 43.4509 103.558 43.6162C103.236 43.939 103.111 44.6195 102.946 45.0597C102.897 45.1765 102.857 45.2735 102.795 45.3965H102.146Z" fill="#BDBDBD"/>
<path d="M110.032 40.7612L110.955 42.7487C111.072 43.0229 111.183 43.2914 111.285 43.5603H111.307C111.389 43.3253 111.479 43.0573 111.589 42.7273L112.32 40.7612H112.953L111.974 43.1547C111.726 43.7734 111.438 44.4816 111.107 44.9073C110.81 45.2854 110.473 45.4785 110.06 45.4785C109.901 45.4785 109.797 45.4651 109.722 45.437L109.776 44.9496C109.832 44.9628 109.901 44.969 110.004 44.969C110.48 44.969 110.762 44.5081 110.914 44.1791C110.961 44.0761 110.948 44.0066 110.893 43.8965L109.35 40.7612H110.032Z" fill="#BDBDBD"/>
<path d="M117.557 40.7603V45.3945H116.951V41.2617H114.794V45.3945H114.188V40.7603H117.557Z" fill="#BDBDBD"/>
<path d="M119.992 43.0523C120.123 43.0863 120.288 43.1003 120.488 43.1003C121.211 43.1003 121.653 42.7428 121.653 42.117C121.653 41.498 121.211 41.2024 120.557 41.2024C120.295 41.2024 120.096 41.2228 119.992 41.2506V43.0523ZM119.393 40.8165C119.682 40.7683 120.062 40.7275 120.543 40.7275C121.137 40.7275 121.571 40.8647 121.846 41.1129C122.094 41.3326 122.252 41.6704 122.252 42.0827C122.252 42.5017 122.128 42.8321 121.894 43.0721C121.571 43.4101 121.06 43.5818 120.475 43.5818C120.295 43.5818 120.129 43.5745 119.992 43.5396V45.3965H119.393V40.8165Z" fill="#BDBDBD"/>
<path d="M125.781 43.4689L125.32 42.1353C125.215 41.8324 125.147 41.5581 125.078 41.2891H125.064C124.995 41.5581 124.926 41.8459 124.829 42.1289L124.376 43.4689H125.781ZM124.251 43.9369L123.768 45.3945H123.148L124.734 40.7603H125.45L127.034 45.3945H126.394L125.898 43.9369H124.251Z" fill="#BDBDBD"/>
<path d="M129.176 44.9418C129.299 44.9624 129.465 44.9686 129.679 44.9686C130.299 44.9686 130.87 44.7424 130.87 44.0685C130.87 43.442 130.327 43.1737 129.672 43.1737H129.176V44.9418ZM129.176 42.7267H129.719C130.346 42.7267 130.719 42.3899 130.719 41.9422C130.719 41.4071 130.312 41.1866 129.706 41.1866C129.431 41.1866 129.271 41.2076 129.176 41.2276V42.7267ZM128.576 40.829C128.838 40.7665 129.259 40.7256 129.672 40.7256C130.271 40.7256 130.657 40.829 130.94 41.0629C131.18 41.2417 131.333 41.5172 131.333 41.8812C131.333 42.3355 131.029 42.7267 130.547 42.8993V42.9192C130.988 43.0224 131.504 43.3869 131.504 44.0756C131.504 44.4741 131.346 44.7835 131.105 45.0043C130.787 45.2993 130.264 45.4365 129.507 45.4365C129.093 45.4365 128.776 45.41 128.576 45.3811V40.829Z" fill="#BDBDBD"/>
<path d="M136.121 40.7617V45.3958H135.514V41.2631H133.984V42.6657C133.984 43.6706 133.936 44.7913 133.288 45.2306C133.116 45.341 132.841 45.4512 132.572 45.4512L132.496 44.9692C132.682 44.9425 132.875 44.8321 132.985 44.7221C133.358 44.3645 133.392 43.4571 133.392 42.7136V40.7617H136.121Z" fill="#BDBDBD"/>
<path d="M140.126 43.2207H138.326V44.8933H140.339V45.3945H137.721V40.7603H140.236V41.2616H138.326V42.7262H140.126V43.2207Z" fill="#BDBDBD"/>
<path d="M142.63 40.7603V42.6992H144.875V40.7603H145.481V45.3945H144.875V43.2207H142.63V45.3945H142.023V40.7603H142.63Z" fill="#BDBDBD"/>
<path d="M147.749 40.7603V42.7122C147.749 43.4415 147.734 44.0538 147.693 44.6724L147.714 44.68C147.941 44.1977 148.231 43.696 148.568 43.1463L150.071 40.7603H150.67V45.3945H150.105V43.4213C150.105 42.6714 150.111 42.1217 150.16 41.5362L150.138 41.5292C149.912 42.0391 149.595 42.5751 149.278 43.0843L147.823 45.3945H147.184V40.7603H147.749Z" fill="#BDBDBD"/>
<path d="M154.61 41.2506C154.507 41.2229 154.313 41.1954 154.038 41.1954C153.452 41.1954 152.95 41.416 152.95 42.0546C152.95 42.6113 153.439 42.935 154.1 42.935C154.3 42.935 154.493 42.935 154.61 42.9209V41.2506ZM152.088 45.3965C152.163 45.2735 152.226 45.1279 152.281 44.977C152.481 44.448 152.598 43.8015 152.978 43.4233C153.088 43.3141 153.225 43.23 153.369 43.1823V43.1693C152.791 43.0721 152.344 42.6592 152.344 42.0281C152.344 41.6223 152.509 41.2984 152.77 41.0851C153.06 40.8523 153.514 40.7275 154.1 40.7275C154.493 40.7275 154.907 40.7626 155.21 40.8239V45.3965H154.61V43.3884H154.163C153.879 43.3884 153.666 43.4509 153.501 43.6162C153.177 43.939 153.053 44.6195 152.887 45.0597C152.839 45.1765 152.797 45.2735 152.736 45.3965H152.088Z" fill="#BDBDBD"/>
<path d="M160.258 5.44629H158.951V9H158.072V5.44629H156.783V4.73438H160.258V5.44629ZM161.91 4.73438L163.006 7.82812L164.096 4.73438H165.25V9H164.368V7.83398L164.456 5.82129L163.305 9H162.701L161.553 5.82422L161.641 7.83398V9H160.762V4.73438H161.91Z" fill="#BDBDBD"/>
</svg>
