<svg width="223" height="60" viewBox="0 0 223 60" fill="none" xmlns="http://www.w3.org/2000/svg">
<path d="M3.12055 56.9583H57.0781V3.06012H3.12055V56.9583ZM58.3044 58.1819H1.81958V1.8183H58.2479V58.1819H58.3044Z" fill="#F3F3F3"/>
<path d="M3.12055 56.9583H57.0781V3.06012H3.12055V56.9583ZM58.3044 58.1819H1.81958V1.8183H58.2479V58.1819H58.3044Z" stroke="white" stroke-width="0.5" stroke-miterlimit="50"/>
<path d="M57.687 56.9583H109.941V3.06012H57.6851L57.687 56.9583ZM111.145 58.1819H56.4825V1.8183H111.145V58.1819Z" fill="#F3F3F3"/>
<path d="M57.687 56.9583H109.941V3.06012H57.6851L57.687 56.9583ZM111.145 58.1819H56.4825V1.8183H111.145V58.1819Z" stroke="white" stroke-width="0.5" stroke-miterlimit="50"/>
<path d="M112.352 56.9583H164.606V3.06012H112.35L112.352 56.9583ZM165.81 58.1819H111.148V1.8183H165.81V58.1819Z" fill="#F3F3F3"/>
<path d="M112.352 56.9583H164.606V3.06012H112.35L112.352 56.9583ZM165.81 58.1819H111.148V1.8183H165.81V58.1819Z" stroke="white" stroke-width="0.5" stroke-miterlimit="50"/>
<path d="M167.015 56.9583H219.268V3.06012H167.013L167.015 56.9583ZM220.473 58.1819H165.81V1.8183H220.473V58.1819Z" fill="#F3F3F3"/>
<path d="M167.015 56.9583H219.268V3.06012H167.013L167.015 56.9583ZM220.473 58.1819H165.81V1.8183H220.473V58.1819Z" stroke="white" stroke-width="0.5" stroke-miterlimit="50"/>
<path d="M27.3298 21.8183H32.7961V38.1819H27.3298V21.8183Z" fill="#F3F3F3"/>
<path d="M81.4802 25.8128H76.5277V21.8183H91.1044V25.8128H86.152V38.1819H81.5366V25.8128H81.4802Z" fill="#F3F3F3"/>
<path d="M131.19 21.8183H143.944V25.6583H135.372V28.1637H143.944V31.7255H135.372V34.3419H143.944V38.1819H131.19V21.8183Z" fill="#F3F3F3"/>
<path d="M194.908 31.7728L193.086 27.1619L191.264 31.7728H194.908ZM190.987 21.8183H195.349L202.251 38.1819H197.391L196.233 35.2619H189.937L188.778 38.1819H184.03L190.987 21.8183Z" fill="#F3F3F3"/>
</svg>
