<svg width="35" height="35" viewBox="0 0 35 35" fill="none" xmlns="http://www.w3.org/2000/svg">
<path fill-rule="evenodd" clip-rule="evenodd" d="M17.5 35C27.165 35 35 27.165 35 17.5C35 7.83502 27.165 0 17.5 0C7.83502 0 0 7.83502 0 17.5C0 27.165 7.83502 35 17.5 35ZM9 11.4902C9 10.1172 10.1172 9 11.4902 9H23.5098C24.8828 9 26 10.1172 26 11.4902V23.5098C26 24.8828 24.8828 26 23.5098 26H11.4902C10.1172 26 9 24.8828 9 23.5098V11.4902ZM13.0508 17.4668C13.0508 19.9385 15.0615 21.9492 17.5332 21.9492C20.0049 21.9492 22.0156 19.9385 22.0156 17.4668C22.0156 14.9951 20.0049 12.9844 17.5332 12.9844C15.0615 12.9844 13.0508 14.9951 13.0508 17.4668ZM21.0195 12.4863C21.0195 13.3102 21.6898 13.9805 22.5137 13.9805C23.3375 13.9805 24.0078 13.3102 24.0078 12.4863C24.0078 11.6625 23.3375 10.9922 22.5137 10.9922C21.6898 10.9922 21.0195 11.6625 21.0195 12.4863ZM22.5137 11.9883C22.2388 11.9883 22.0156 12.2115 22.0156 12.4863C22.0156 12.7612 22.2388 12.9844 22.5137 12.9844C22.7885 12.9844 23.0117 12.7612 23.0117 12.4863C23.0117 12.2115 22.7885 11.9883 22.5137 11.9883ZM14.0469 17.4668C14.0469 15.5446 15.6111 13.9805 17.5332 13.9805C19.4554 13.9805 21.0195 15.5446 21.0195 17.4668C21.0195 19.3889 19.4554 20.9531 17.5332 20.9531C15.6111 20.9531 14.0469 19.3889 14.0469 17.4668Z" fill="#F3F3F3"/>
</svg>
